<?xml version="1.0" encoding="utf-8"?>
<!-- Generator: Adobe Illustrator 22.0.1, SVG Export Plug-In . SVG Version: 6.00 Build 0)  -->
<svg version="1.1" id="Слой_1" xmlns="http://www.w3.org/2000/svg" xmlns:xlink="http://www.w3.org/1999/xlink" x="0px" y="0px"
	 viewBox="0 0 50 50" style="enable-background:new 0 0 50 50;" xml:space="preserve">
<style type="text/css">
	.st0{fill:#0897F5;}
	.st1{fill:#FFFFFF;}
</style>
<circle class="st0" cx="25" cy="25" r="25"/>
<path class="st1" d="M28.9,30.6C29.1,30.5,28.6,30.5,28.9,30.6L28.9,30.6z"/>
<g>
	<path class="st1" d="M25,16.3C25,16.3,25,16.3,25,16.3C25,16.3,25,16.3,25,16.3z"/>
	<path class="st1" d="M25,16.3L25,16.3C25.2,16.3,28.2,16.4,25,16.3z"/>
</g>
<g>
	<path class="st1" d="M30,22.8C30,22.6,30,22.8,30,22.8L30,22.8z"/>
	<path class="st1" d="M28,22.7L28,22.7C28,22.7,27.9,22.7,28,22.7C27.9,22.7,27.9,22.7,28,22.7z"/>
	<path class="st1" d="M28,22.7C27.9,22.7,27.9,22.7,28,22.7C27.9,22.7,27.8,22.7,28,22.7z"/>
	<path class="st1" d="M28,22.7L28,22.7C28,22.7,28,22.7,28,22.7z"/>
</g>
<g>
	<path class="st1" d="M37,20.5h-0.8v8.3c0,1.3-0.8,2.5-2.3,2.5H19.2v0.4c0,1.1,1.3,2.3,2.6,2.3h11.3l4.3,2.5L36.9,34H37
		c1.3,0,1.9-1.2,1.9-2.3v-9.2C39,21.3,38.4,20.5,37,20.5z"/>
	<path class="st1" d="M31.8,14.7H14.6c-1.5,0-3.3,1.3-3.3,2.6v10.4c0,1.2,1.5,2.1,2.9,2.2l-0.9,3.5l5.9-3.5h12.6
		c1.5,0,2.9-0.9,2.9-2.2v-8.4v-2C34.7,16,33.3,14.7,31.8,14.7z M17.2,23.5c-0.9,0-1.6-0.7-1.6-1.6s0.7-1.6,1.6-1.6
		c0.9,0,1.6,0.7,1.6,1.6S18.1,23.5,17.2,23.5z M23,23.5c-0.9,0-1.6-0.7-1.6-1.6s0.7-1.6,1.6-1.6s1.6,0.7,1.6,1.6S23.9,23.5,23,23.5z
		 M28.8,23.5c-0.9,0-1.6-0.7-1.6-1.6s0.7-1.6,1.6-1.6s1.6,0.7,1.6,1.6S29.7,23.5,28.8,23.5z"/>
</g>
<rect x="13.3" y="18.5" class="st1" width="18.6" height="5.3"/>
</svg>
